<svg width="165" height="35" viewBox="0 0 165 35" fill="none" xmlns="http://www.w3.org/2000/svg">
<path fill-rule="evenodd" clip-rule="evenodd" d="M18.4265 4.69892C19.0772 4.40123 19.7844 4.24716 20.5 4.24716C21.2156 4.24716 21.9228 4.40123 22.5735 4.69892C27.2655 6.84733 30.7606 9.92013 32.4438 11.578C33.3512 12.4715 33.8364 13.6629 33.9046 14.8924C33.988 16.4071 34.0938 18.8636 34.0938 21.6343C34.0938 23.5894 34.0412 25.3874 33.9808 26.8084C33.9368 27.9001 33.4804 28.9345 32.7037 29.703C31.927 30.4715 30.8878 30.9169 29.7957 30.9494C27.6944 31.0219 24.5715 31.0938 20.5 31.0938C16.4285 31.0938 13.3056 31.0213 11.2043 30.9494C10.1122 30.9169 9.07296 30.4715 8.29629 29.703C7.51961 28.9345 7.06325 27.9001 7.01923 26.8084C6.94536 25.0847 6.90769 23.3596 6.90625 21.6343C6.90625 18.8636 7.01198 16.4071 7.09535 14.8924C7.16362 13.6629 7.64877 12.4715 8.55623 11.578C10.2394 9.92013 13.7351 6.84733 18.4265 4.69892ZM15.6667 24.75C15.3462 24.75 15.0389 24.8773 14.8122 25.1039C14.5856 25.3305 14.4583 25.6379 14.4583 25.9583C14.4583 26.2788 14.5856 26.5861 14.8122 26.8128C15.0389 27.0394 15.3462 27.1667 15.6667 27.1667H25.3333C25.6538 27.1667 25.9611 27.0394 26.1878 26.8128C26.4144 26.5861 26.5417 26.2788 26.5417 25.9583C26.5417 25.6379 26.4144 25.3305 26.1878 25.1039C25.9611 24.8773 25.6538 24.75 25.3333 24.75H15.6667Z" fill="white"/>
<path d="M45.424 26L40 9.2H44.704L47.968 20.768L51.256 9.2H55.96L50.536 26H45.424ZM64.1553 14H68.1393V26H64.1553V24.896C63.3393 25.856 62.2033 26.336 60.7473 26.336C59.1473 26.336 57.8033 25.736 56.7153 24.536C55.6433 23.32 55.1073 21.808 55.1073 20C55.1073 18.192 55.6433 16.688 56.7153 15.488C57.8033 14.272 59.1473 13.664 60.7473 13.664C62.2033 13.664 63.3393 14.144 64.1553 15.104V14ZM59.8113 21.896C60.2753 22.376 60.8833 22.616 61.6353 22.616C62.3873 22.616 62.9953 22.376 63.4593 21.896C63.9233 21.416 64.1553 20.784 64.1553 20C64.1553 19.216 63.9233 18.584 63.4593 18.104C62.9953 17.624 62.3873 17.384 61.6353 17.384C60.8833 17.384 60.2753 17.624 59.8113 18.104C59.3473 18.584 59.1153 19.216 59.1153 20C59.1153 20.784 59.3473 21.416 59.8113 21.896ZM76.2334 26.336C74.4094 26.336 72.8894 25.728 71.6734 24.512C70.4574 23.296 69.8494 21.792 69.8494 20C69.8494 18.208 70.4574 16.704 71.6734 15.488C72.8894 14.272 74.4094 13.664 76.2334 13.664C77.4174 13.664 78.4894 13.944 79.4494 14.504C80.4254 15.064 81.1774 15.816 81.7054 16.76L78.2974 18.728C77.8654 17.944 77.1694 17.552 76.2094 17.552C75.5374 17.552 74.9774 17.784 74.5294 18.248C74.0814 18.696 73.8574 19.28 73.8574 20C73.8574 20.72 74.0814 21.312 74.5294 21.776C74.9774 22.224 75.5374 22.448 76.2094 22.448C77.2014 22.448 77.8974 22.048 78.2974 21.248L81.7054 23.216C81.1774 24.176 80.4254 24.936 79.4494 25.496C78.4894 26.056 77.4174 26.336 76.2334 26.336ZM91.2256 14H95.2096V26H91.2256V24.896C90.4096 25.856 89.2736 26.336 87.8176 26.336C86.2176 26.336 84.8736 25.736 83.7856 24.536C82.7136 23.32 82.1776 21.808 82.1776 20C82.1776 18.192 82.7136 16.688 83.7856 15.488C84.8736 14.272 86.2176 13.664 87.8176 13.664C89.2736 13.664 90.4096 14.144 91.2256 15.104V14ZM86.8816 21.896C87.3456 22.376 87.9536 22.616 88.7056 22.616C89.4576 22.616 90.0656 22.376 90.5296 21.896C90.9936 21.416 91.2256 20.784 91.2256 20C91.2256 19.216 90.9936 18.584 90.5296 18.104C90.0656 17.624 89.4576 17.384 88.7056 17.384C87.9536 17.384 87.3456 17.624 86.8816 18.104C86.4176 18.584 86.1856 19.216 86.1856 20C86.1856 20.784 86.4176 21.416 86.8816 21.896ZM105.127 14H109.543L105.439 25.808C104.799 27.616 103.895 28.92 102.727 29.72C101.559 30.52 100.047 30.88 98.1912 30.8V27.056C99.0392 27.056 99.6792 26.952 100.111 26.744C100.543 26.536 100.895 26.16 101.167 25.616L96.3672 14H100.831L103.255 20.96L105.127 14ZM116.366 26.36C114.59 26.36 113.118 25.984 111.95 25.232C110.782 24.48 109.966 23.464 109.502 22.184L113.174 20.048C113.798 21.536 114.902 22.28 116.486 22.28C117.798 22.28 118.454 21.904 118.454 21.152C118.454 20.656 118.078 20.256 117.326 19.952C117.006 19.824 116.302 19.608 115.214 19.304C113.678 18.856 112.462 18.232 111.566 17.432C110.67 16.616 110.222 15.488 110.222 14.048C110.222 12.496 110.774 11.24 111.878 10.28C112.998 9.32 114.39 8.84 116.054 8.84C117.462 8.84 118.71 9.168 119.798 9.824C120.886 10.48 121.718 11.432 122.294 12.68L118.694 14.792C118.166 13.544 117.294 12.92 116.078 12.92C115.566 12.92 115.174 13.024 114.902 13.232C114.646 13.44 114.518 13.704 114.518 14.024C114.518 14.392 114.71 14.704 115.094 14.96C115.494 15.216 116.262 15.512 117.398 15.848C118.214 16.088 118.87 16.312 119.366 16.52C119.862 16.728 120.406 17.032 120.998 17.432C121.59 17.816 122.03 18.32 122.318 18.944C122.606 19.552 122.75 20.272 122.75 21.104C122.75 22.752 122.166 24.04 120.998 24.968C119.83 25.896 118.286 26.36 116.366 26.36ZM131.35 17.816H128.854V21.296C128.854 21.824 129.046 22.152 129.43 22.28C129.814 22.408 130.454 22.448 131.35 22.4V26C128.966 26.288 127.286 26.072 126.31 25.352C125.35 24.616 124.87 23.296 124.87 21.392V17.816H123.07V14H124.87V11.84L128.854 10.64V14H131.35V17.816ZM141.452 14H145.436V26H141.452V24.896C140.636 25.856 139.5 26.336 138.044 26.336C136.444 26.336 135.1 25.736 134.012 24.536C132.94 23.32 132.404 21.808 132.404 20C132.404 18.192 132.94 16.688 134.012 15.488C135.1 14.272 136.444 13.664 138.044 13.664C139.5 13.664 140.636 14.144 141.452 15.104V14ZM137.108 21.896C137.572 22.376 138.18 22.616 138.932 22.616C139.684 22.616 140.292 22.376 140.756 21.896C141.22 21.416 141.452 20.784 141.452 20C141.452 19.216 141.22 18.584 140.756 18.104C140.292 17.624 139.684 17.384 138.932 17.384C138.18 17.384 137.572 17.624 137.108 18.104C136.644 18.584 136.412 19.216 136.412 20C136.412 20.784 136.644 21.416 137.108 21.896ZM155.354 14H159.77L155.666 25.808C155.026 27.616 154.122 28.92 152.954 29.72C151.786 30.52 150.274 30.88 148.418 30.8V27.056C149.266 27.056 149.906 26.952 150.338 26.744C150.77 26.536 151.122 26.16 151.394 25.616L146.594 14H151.058L153.482 20.96L155.354 14Z" fill="white"/>
</svg>
